<svg xmlns="http://www.w3.org/2000/svg" width="150" height="150" viewBox="0 0 150 150"><title>Rectangle 13</title><defs><clipPath id="a"><path d="M470 4640v-150h150v150z" fill="#fff"/></clipPath></defs><path d="M0 150V0h150v150z" fill="none"/><path d="M470 4640v-150h150v150z" fill="none" stroke-dasharray="0" stroke-linejoin="round" stroke-linecap="round" stroke="#95e1d3" stroke-miterlimit="50" stroke-width="6" clip-path="url(&amp;quot;#a&amp;quot;)" transform="translate(-470 -4490)"/><path d="M104 81h-2v5c0 .2-.021.41-.061.6-.028.14-.076.27-.122.4-.02.05-.03.11-.053.17-.048.11-.115.22-.176.32-.035.06-.061.13-.1.19a3.65 3.65 0 0 1-.334.4c-.012.01-.02.03-.033.04-.534.53-1.271.86-2.084.87-.012 0-.024.01-.037.01-.828 0-1.578-.34-2.121-.88L89.757 81H62c-1.657 0-3-1.34-3-3V48c0-1.66 1.343-3 3-3h42c1.657 0 3 1.34 3 3v30c0 1.66-1.343 3-3 3zm-42 3c-3.314 0-6-2.69-6-6V57h-9c-1.657 0-3 1.34-3 3v34c0 1.65 1.341 3 2.996 3H51v6c0 .21.021.41.061.6.028.14.076.27.122.4.02.05.03.11.053.17.048.11.115.21.177.32.035.06.06.13.099.18.098.15.212.28.334.41.012.01.02.03.033.04.534.53 1.27.86 2.084.87.013 0 .024.01.037.01.828 0 1.578-.34 2.121-.88L64.243 97H96c1.657 0 3-1.34 3-3v-2a6 6 0 0 1-4.151-1.68h-.008L88.515 84z" fill="#95e1d3"/></svg>