<svg xmlns="http://www.w3.org/2000/svg" width="32" height="32" viewBox="0 0 32 32"><title>IMAGE</title><path d="M30.5 32h-29C.67 32 0 31.33 0 30.5v-29C0 .67.67 0 1.5 0h29c.83 0 1.5.67 1.5 1.5v29c0 .83-.67 1.5-1.5 1.5zM29 3H3v26h26zM12 4.5c.83 0 1.5.67 1.5 1.5s-.67 1.5-1.5 1.5H7.5V12c0 .83-.67 1.5-1.5 1.5s-1.5-.67-1.5-1.5V4.5zM4.5 20c0-.83.67-1.5 1.5-1.5s1.5.67 1.5 1.5v4.5H12c.83 0 1.5.67 1.5 1.5s-.67 1.5-1.5 1.5H4.5zM20 4.5h7.5V12c0 .83-.67 1.5-1.5 1.5s-1.5-.67-1.5-1.5V7.5H20c-.83 0-1.5-.67-1.5-1.5s.67-1.5 1.5-1.5zM18.5 26c0 .83.67 1.5 1.5 1.5h7.5V20c0-.83-.67-1.5-1.5-1.5s-1.5.67-1.5 1.5v4.5H20c-.83 0-1.5.67-1.5 1.5z" fill="#95e1d3"/></svg>