<svg xmlns="http://www.w3.org/2000/svg" width="32" height="31" viewBox="0 0 32 31"><title>HOME</title><path d="M31.594 15.48h.004L26 9.88V5.5a1.5 1.5 0 1 0-3 0v1.38L17.098.98h-.001a1.48 1.48 0 0 0-.933-.47h-.004c-.023 0-.045-.01-.068-.01H16c-.425 0-.808.18-1.081.46L.461 15.42a1.5 1.5 0 1 0 2.092 2.15h.001L16 4.12l.038.04L29.477 17.6l.003-.01c.268.25.625.41 1.02.41a1.5 1.5 0 0 0 1.5-1.5c0-.4-.156-.75-.406-1.02zM16 6L3 19v10.5c0 .83.672 1.5 1.5 1.5h14V19h6v12h3a1.5 1.5 0 0 0 1.5-1.5V19zm-2.5 19h-6v-6h6z" fill="#95e1d3"/></svg>