<svg xmlns="http://www.w3.org/2000/svg" width="32" height="32" viewBox="0 0 32 32"><title>LINE GRAPH</title><path d="M30.5 32h-29A1.5 1.5 0 0 1 0 30.5v-29C0 .67.672 0 1.5 0h29c.828 0 1.5.67 1.5 1.5v29a1.5 1.5 0 0 1-1.5 1.5zM29 3H3v26h26zM4.5 17.52a1.5 1.5 0 0 0 2.347 1.24l3.135-1.96 6.657 4.43c.243.17.54.28.861.28.328 0 .632-.11.878-.29h.001l8.5-6h-.001c.377-.27.622-.71.622-1.21a1.5 1.5 0 0 0-1.5-1.5c-.331 0-.637.1-.885.28l-7.638 5.4-6.631-4.42h-.006c-.24-.16-.529-.25-.84-.25-.288 0-.556.08-.785.22l-4 2.5c-.429.26-.715.74-.715 1.28z" fill="#95e1d3"/></svg>