<svg xmlns="http://www.w3.org/2000/svg" width="32" height="32" viewBox="0 0 32 32"><title>BOOK 2</title><path d="M31.065 25.89l-14.471 5.99A1.47 1.47 0 0 1 16 32a1.47 1.47 0 0 1-.594-.12L.935 25.89A1.496 1.496 0 0 1 0 24.5v-23C0 .67.672 0 1.5 0c.203 0 .397.04.573.11h.001l.002.01h.013L16 5.88 29.911.12h.013l.003-.01c.176-.07.37-.11.573-.11.828 0 1.5.67 1.5 1.5v23c0 .63-.387 1.17-.935 1.39zM14.5 8.5L3 3.74V23.5l11.5 4.76zM29 3.74L17.5 8.5v19.76L29 23.5zm-9.121 6.89l5.5-2.5c.189-.08.399-.13.621-.13.828 0 1.5.67 1.5 1.5 0 .61-.361 1.13-.879 1.37l-5.5 2.5c-.19.08-.4.13-.621.13A1.5 1.5 0 0 1 19 12c0-.61.361-1.13.879-1.37zm0 5.5l5.5-2.5c.189-.08.399-.13.621-.13.828 0 1.5.67 1.5 1.5 0 .61-.361 1.13-.879 1.37l-5.5 2.5v-.01c-.19.09-.4.14-.621.14a1.5 1.5 0 0 1-1.5-1.5c0-.61.361-1.13.879-1.37zm0 5.5l5.5-2.5c.189-.08.399-.13.621-.13.828 0 1.5.67 1.5 1.5 0 .61-.361 1.13-.879 1.37l-5.5 2.5c-.19.08-.4.13-.621.13A1.5 1.5 0 0 1 19 23c0-.61.361-1.13.879-1.37zM6 8c.221 0 .431.05.621.13l5.5 2.5c.518.24.879.76.879 1.37a1.5 1.5 0 0 1-1.5 1.5c-.222 0-.432-.05-.621-.13l-5.5-2.5A1.508 1.508 0 0 1 4.5 9.5C4.5 8.67 5.172 8 6 8zm0 5.5c.221 0 .431.05.621.13l5.5 2.5c.518.24.879.76.879 1.37a1.5 1.5 0 0 1-1.5 1.5c-.222 0-.432-.05-.621-.14v.01l-5.5-2.5A1.508 1.508 0 0 1 4.5 15c0-.83.672-1.5 1.5-1.5zm-1.5 7c0 .61.361 1.13.879 1.37l5.5 2.5c.189.08.399.13.621.13A1.5 1.5 0 0 0 13 23c0-.61-.361-1.13-.879-1.37l-5.5-2.5A1.6 1.6 0 0 0 6 19a1.5 1.5 0 0 0-1.5 1.5z" fill="#95e1d3"/></svg>