<svg xmlns="http://www.w3.org/2000/svg" width="64" height="61" viewBox="0 0 64 61"><title>ALARM</title><path d="M64 11.74C64 5.26 58.74 0 52.252 0c-2.742 0-5.258.94-7.258 2.52C52.386 5.68 58.312 11.62 61.48 19c1.574-2 2.52-4.5 2.52-7.26zM32 3C15.984 3 3 15.98 3 32c0 7.7 3.016 14.66 7.902 19.86l-4.024 4.02A3 3 0 0 0 9 61c.828 0 1.578-.34 2.122-.88l4.326-4.32C20.144 59.06 25.842 61 32 61c6.17 0 11.878-1.94 16.58-5.22l4.356 4.36a3.02 3.02 0 0 0 2.098.86A2.96 2.96 0 0 0 58 58.04c0-.82-.332-1.56-.868-2.1l-4.058-4.06C57.976 46.68 61 39.7 61 32 61 15.98 48.016 3 32 3zm23 29c0 12.7-10.298 23-23 23S9 44.7 9 32 19.298 9 32 9s23 10.3 23 23zm-8 0c0-1.66-1.344-3-3-3h-9V16c0-1.66-1.344-3-3-3s-3 1.34-3 3v16c0 1.66 1.344 3 3 3h12c1.656 0 3-1.34 3-3zM2.574 19.42A11.955 11.955 0 0 1 0 12C0 5.38 5.372 0 12 0c2.8 0 5.37.96 7.412 2.58-7.55 3.22-13.604 9.28-16.838 16.84z" fill="#95e1d3"/></svg>