<svg id="SvgjsSvg1014" xmlns="http://www.w3.org/2000/svg" version="1.1" xmlns:xlink="http://www.w3.org/1999/xlink" xmlns:svgjs="http://svgjs.com/svgjs" width="150" height="150" viewBox="0 0 150 150"><title>Rectangle 13</title><desc>Created with Avocode.</desc><defs id="SvgjsDefs1015"><clipPath id="SvgjsClipPath1019"><path id="SvgjsPath1018" d="M470 4640V4490H620V4640Z " fill="#ffffff"></path></clipPath></defs><path id="SvgjsPath1016" d="M470 4640V4490H620V4640Z " fill="#000000" fill-opacity="0" transform="matrix(1,0,0,1,-470,-4490)"></path><path id="SvgjsPath1017" d="M470 4640V4490H620V4640Z " fill-opacity="0" fill="#ffffff" stroke-dasharray="0" stroke-linejoin="round" stroke-linecap="round" stroke-opacity="1" stroke="#95e1d3" stroke-miterlimit="50" stroke-width="6" clip-path="url(&quot;#SvgjsClipPath1019&quot;)" transform="matrix(1,0,0,1,-470,-4490)"></path><path id="SvgjsPath1020" d="M574 4571H572V4576C572 4576.2 571.979 4576.41 571.939 4576.6C571.911 4576.740000000001 571.8629999999999 4576.870000000001 571.817 4577C571.797 4577.05 571.787 4577.11 571.764 4577.17C571.716 4577.28 571.649 4577.39 571.588 4577.49C571.553 4577.55 571.5269999999999 4577.62 571.4879999999999 4577.679999999999C571.39 4577.82 571.276 4577.95 571.154 4578.079999999999C571.142 4578.089999999999 571.134 4578.109999999999 571.121 4578.119999999999C570.587 4578.649999999999 569.85 4578.979999999999 569.037 4578.989999999999C569.0250000000001 4578.989999999999 569.013 4578.999999999999 569 4578.999999999999C568.172 4578.999999999999 567.422 4578.659999999999 566.879 4578.119999999999L559.7570000000001 4570.999999999999H532.0000000000001C530.3430000000001 4570.999999999999 529.0000000000001 4569.659999999999 529.0000000000001 4567.999999999999V4537.999999999999C529.0000000000001 4536.339999999999 530.3430000000001 4534.999999999999 532.0000000000001 4534.999999999999H574.0000000000001C575.6570000000002 4534.999999999999 577.0000000000001 4536.339999999999 577.0000000000001 4537.999999999999V4567.999999999999C577.0000000000001 4569.659999999999 575.6570000000002 4570.999999999999 574.0000000000001 4570.999999999999ZM532 4574C528.686 4574 526 4571.31 526 4568V4547H517C515.343 4547 514 4548.34 514 4550V4584C514 4585.65 515.341 4587 516.996 4587H521V4593C521 4593.21 521.021 4593.41 521.061 4593.6C521.089 4593.740000000001 521.1370000000001 4593.870000000001 521.183 4594C521.203 4594.05 521.213 4594.11 521.236 4594.17C521.284 4594.28 521.351 4594.38 521.413 4594.49C521.448 4594.55 521.473 4594.62 521.5120000000001 4594.67C521.61 4594.82 521.724 4594.95 521.846 4595.08C521.858 4595.09 521.866 4595.11 521.879 4595.12C522.413 4595.65 523.149 4595.98 523.963 4595.99C523.976 4595.99 523.987 4596 524 4596C524.828 4596 525.578 4595.66 526.121 4595.12L534.2429999999999 4587H565.9999999999999C567.6569999999999 4587 568.9999999999999 4585.66 568.9999999999999 4584V4582C567.3859999999999 4582 565.9279999999999 4581.35 564.8489999999999 4580.32H564.8409999999999L558.5149999999999 4574Z " fill="#95e1d3" fill-opacity="1" transform="matrix(1,0,0,1,-470,-4490)"></path></svg>