<svg id="SvgjsSvg1000" xmlns="http://www.w3.org/2000/svg" version="1.1" xmlns:xlink="http://www.w3.org/1999/xlink" xmlns:svgjs="http://svgjs.com/svgjs" width="22" height="12" viewBox="0 0 22 12"><title>ARROW / DOWN</title><desc>Created with Avocode.</desc><defs id="SvgjsDefs1001"></defs><path id="SvgjsPath1007" d="M1521.14 4194.52L1529 4202.38L1536.96 4194.42V4194.42C1537.23 4194.16 1537.6000000000001 4194 1538 4194C1538.83 4194 1539.5 4194.67 1539.5 4195.5C1539.5 4195.9 1539.34 4196.27 1539.08 4196.54V4196.54L1530.08 4205.54V4205.54C1529.81 4205.82 1529.4199999999998 4206 1529 4206V4206H1528.99C1528.57 4206 1528.19 4205.82 1527.91 4205.54V4205.54L1518.91 4196.54H1518.92C1518.66 4196.2699999999995 1518.5 4195.9 1518.5 4195.5C1518.5 4194.67 1519.17 4194 1520 4194C1520.46 4194 1520.86 4194.2 1521.14 4194.52Z " fill="#cccccc" fill-opacity="1" transform="matrix(1,0,0,1,-1518,-4194)"></path></svg>