<svg id="SvgjsSvg1011" xmlns="http://www.w3.org/2000/svg" version="1.1" xmlns:xlink="http://www.w3.org/1999/xlink" xmlns:svgjs="http://svgjs.com/svgjs" width="28" height="32" viewBox="0 0 28 32"><title>EQUALIZER</title><desc>Created with Avocode.</desc><defs id="SvgjsDefs1012"></defs><path id="SvgjsPath1013" d="M1002.5 4200.5H999.5C998.672 4200.5 998 4199.83 998 4199V4193C998 4192.17 998.672 4191.5 999.5 4191.5H1002.5C1003.33 4191.5 1004 4192.17 1004 4193V4199C1004 4199.83 1003.33 4200.5 1002.5 4200.5ZM999.5 4185.5C999.5 4184.67 1000.17 4184 1001 4184C1001.83 4184 1002.5 4184.67 1002.5 4185.5V4190H999.5ZM991.5 4208.5H988.5C987.672 4208.5 987 4207.83 987 4207V4201C987 4200.17 987.672 4199.5 988.5 4199.5H991.5C992.328 4199.5 993 4200.17 993 4201V4207C993 4207.83 992.328 4208.5 991.5 4208.5ZM988.5 4185.5C988.5 4184.67 989.172 4184 990 4184C990.828 4184 991.5 4184.67 991.5 4185.5V4198H988.5ZM980.5 4204.5H977.5C976.672 4204.5 976 4203.83 976 4203V4197C976 4196.17 976.672 4195.5 977.5 4195.5H980.5C981.328 4195.5 982 4196.17 982 4197V4203C982 4203.83 981.328 4204.5 980.5 4204.5ZM977.5 4185.5C977.5 4184.67 978.172 4184 979 4184C979.828 4184 980.5 4184.67 980.5 4185.5V4194H977.5ZM980.5 4214.5C980.5 4215.33 979.828 4216 979 4216C978.172 4216 977.5 4215.33 977.5 4214.5V4206H980.5ZM991.5 4214.5C991.5 4215.33 990.828 4216 990 4216C989.172 4216 988.5 4215.33 988.5 4214.5V4210H991.5ZM1002.5 4202H999.5V4214.5C999.5 4215.33 1000.17 4216 1001 4216C1001.83 4216 1002.5 4215.33 1002.5 4214.5Z " fill="#95e1d3" fill-opacity="1" transform="matrix(1,0,0,1,-976,-4184)"></path></svg>