<svg id="SvgjsSvg1020" xmlns="http://www.w3.org/2000/svg" version="1.1" xmlns:xlink="http://www.w3.org/1999/xlink" xmlns:svgjs="http://svgjs.com/svgjs" width="32" height="31" viewBox="0 0 32 31"><title>HOME</title><desc>Created with Avocode.</desc><defs id="SvgjsDefs1021"></defs><path id="SvgjsPath1022" d="M821.594 2494.48H821.5980000000001L816.0000000000001 2488.88V2484.5C816.0000000000001 2483.67 815.3280000000001 2483 814.5000000000001 2483C813.6710000000002 2483 813.0000000000001 2483.67 813.0000000000001 2484.5V2485.88L807.0980000000001 2479.98H807.0970000000001C806.8580000000001 2479.72 806.5310000000001 2479.55 806.1640000000001 2479.51C806.1620000000001 2479.51 806.1610000000001 2479.51 806.1600000000001 2479.51C806.1370000000001 2479.51 806.1150000000001 2479.5 806.0920000000001 2479.5C806.0880000000001 2479.5 806.0840000000001 2479.5 806.0800000000002 2479.5C806.0530000000001 2479.5 806.0270000000002 2479.5 806.0010000000002 2479.5C806.0000000000002 2479.5 806.0000000000002 2479.5 806.0000000000002 2479.5C805.5750000000003 2479.5 805.1920000000002 2479.68 804.9190000000002 2479.96L790.4610000000002 2494.42C790.1770000000002 2494.69 790.0000000000002 2495.07 790.0000000000002 2495.5C790.0000000000002 2496.33 790.6720000000003 2497 791.5000000000002 2497C791.9100000000002 2497 792.2820000000003 2496.83 792.5530000000002 2496.57H792.5540000000002L806.0000000000002 2483.1200000000003L806.0380000000002 2483.1600000000003L819.4770000000002 2496.6000000000004L819.4800000000002 2496.59C819.7480000000003 2496.84 820.1050000000002 2497 820.5000000000002 2497C821.3280000000002 2497 822.0000000000002 2496.33 822.0000000000002 2495.5C822.0000000000002 2495.1 821.8440000000003 2494.75 821.5940000000003 2494.48ZM806 2485L793 2498V2508.5C793 2509.33 793.672 2510 794.5 2510H808.5V2498H814.5V2510H817.5C818.328 2510 819 2509.33 819 2508.5V2498ZM803.5 2504H797.5V2498H803.5Z " fill="#95e1d3" fill-opacity="1" transform="matrix(1,0,0,1,-790,-2479)"></path></svg>