<svg id="SvgjsSvg1008" xmlns="http://www.w3.org/2000/svg" version="1.1" xmlns:xlink="http://www.w3.org/1999/xlink" xmlns:svgjs="http://svgjs.com/svgjs" width="64" height="61" viewBox="0 0 64 61"><title>ALARM</title><desc>Created with Avocode.</desc><defs id="SvgjsDefs1009"></defs><path id="SvgjsPath1010" d="M844 4631.74C844 4625.26 838.74 4620 832.252 4620C829.51 4620 826.9939999999999 4620.94 824.9939999999999 4622.52C832.386 4625.68 838.3119999999999 4631.620000000001 841.4799999999999 4639C843.0539999999999 4637 843.9999999999999 4634.5 843.9999999999999 4631.74ZM812 4623C795.984 4623 783 4635.98 783 4652C783 4659.7 786.016 4666.66 790.902 4671.86L786.878 4675.88C786.336 4676.42 786 4677.18 786 4678C786 4679.66 787.344 4681 789 4681C789.828 4681 790.578 4680.66 791.122 4680.12L795.448 4675.8C800.144 4679.06 805.842 4681 812 4681C818.17 4681 823.878 4679.06 828.58 4675.78L832.936 4680.139999999999C833.472 4680.66 834.214 4680.999999999999 835.034 4680.999999999999C836.672 4680.999999999999 838 4679.679999999999 838 4678.039999999999C838 4677.219999999999 837.668 4676.479999999999 837.132 4675.939999999999L833.074 4671.879999999998C837.976 4666.6799999999985 841 4659.699999999998 841 4651.999999999998C841 4635.979999999998 828.016 4622.999999999998 812 4622.999999999998ZM835 4652C835 4664.7 824.702 4675 812 4675C799.298 4675 789 4664.7 789 4652C789 4639.3 799.298 4629 812 4629C824.702 4629 835 4639.3 835 4652ZM827 4652C827 4650.34 825.656 4649 824 4649H815V4636C815 4634.34 813.656 4633 812 4633C810.344 4633 809 4634.34 809 4636V4652C809 4653.66 810.344 4655 812 4655H824C825.656 4655 827 4653.66 827 4652ZM782.574 4639.42C780.966 4637.38 780 4634.8 780 4632C780 4625.38 785.372 4620 792 4620C794.8 4620 797.37 4620.96 799.412 4622.58C791.8620000000001 4625.8 785.808 4631.86 782.5740000000001 4639.42Z " fill="#95e1d3" fill-opacity="1" transform="matrix(1,0,0,1,-780,-4620)"></path></svg>